HIERARCHY
ROOT Hips
{
	OFFSET 0.000000 0.000000 0.000000
	CHANNELS 6 Xposition Yposition Zposition Xrotation Yrotation Zrotation
	JOINT LeftUpLeg_virtual
	{
		OFFSET 0.000000 0.000000 0.000000
		CHANNELS 3 Xrotation Yrotation Zrotation
		JOINT LeftUpLeg
		{
			OFFSET 11.394100 -6.187798 -0.413800
			CHANNELS 3 Xrotation Yrotation Zrotation
			JOINT LeftLeg
			{
				OFFSET 0.430247 -32.302673 3.732800
				CHANNELS 3 Xrotation Yrotation Zrotation
				JOINT LeftFoot
				{
					OFFSET -0.430247 -48.264931 -6.423300
					CHANNELS 3 Xrotation Yrotation Zrotation
					JOINT LeftToeBase
					{
						OFFSET 4.230900 -16.068199 23.438400
						CHANNELS 3 Xrotation Yrotation Zrotation
						JOINT LeftToe_End
						{
							OFFSET 4.510700 0.695400 19.974600
							CHANNELS 3 Xrotation Yrotation Zrotation
							End Site
							{
								OFFSET 0 0 0
							}
						}
					}
				}
			}
		}
	}
	JOINT RightUpLeg_virtual
	{
		OFFSET 0.000000 0.000000 0.000000
		CHANNELS 3 Xrotation Yrotation Zrotation
		JOINT RightUpLeg
		{
			OFFSET -11.333700 -6.187798 -0.413800
			CHANNELS 3 Xrotation Yrotation Zrotation
			JOINT RightLeg
			{
				OFFSET -0.430392 -32.302628 3.733000
				CHANNELS 3 Xrotation Yrotation Zrotation
				JOINT RightFoot
				{
					OFFSET 0.430392 -48.264973 -6.423500
					CHANNELS 3 Xrotation Yrotation Zrotation
					JOINT RightToeBase
					{
						OFFSET -4.230900 -16.068199 23.438400
						CHANNELS 3 Xrotation Yrotation Zrotation
						JOINT RightToe_End
						{
							OFFSET -4.510700 0.695400 19.974600
							CHANNELS 3 Xrotation Yrotation Zrotation
							End Site
							{
								OFFSET 0 0 0
							}
						}
					}
				}
			}
		}
	}
	JOINT Spine_virtual
	{
		OFFSET 0.000000 0.000000 0.000000
		CHANNELS 3 Xrotation Yrotation Zrotation
		JOINT Spine
		{
			OFFSET -0.002400 12.777504 0.315300
			CHANNELS 3 Xrotation Yrotation Zrotation
			JOINT Spine1
			{
				OFFSET -0.002067 5.816869 0.032633
				CHANNELS 3 Xrotation Yrotation Zrotation
				JOINT Spine1_split
				{
					OFFSET -0.002067 5.816869 0.032633
					CHANNELS 3 Xrotation Yrotation Zrotation
					JOINT Spine2
					{
						OFFSET -0.002067 5.816869 0.032633
						CHANNELS 3 Xrotation Yrotation Zrotation
						JOINT Neck_virtual
						{
							OFFSET 0.000000 0.000000 0.000000
							CHANNELS 3 Xrotation Yrotation Zrotation
							JOINT Neck
							{
								OFFSET -0.003700 21.199493 -0.826900
								CHANNELS 3 Xrotation Yrotation Zrotation
								JOINT Head
								{
									OFFSET 0.000000 20.442200 4.834800
									CHANNELS 3 Xrotation Yrotation Zrotation
									JOINT HeadTop_End
									{
										OFFSET 0.000000 34.668396 4.968400
										CHANNELS 3 Xrotation Yrotation Zrotation
										End Site
										{
											OFFSET 0 0 0
										}
									}
								}
							}
						}
						JOINT LeftShoulder_virtual
						{
							OFFSET 0.000000 0.000000 0.000000
							CHANNELS 3 Xrotation Yrotation Zrotation
							JOINT LeftShoulder
							{
								OFFSET 3.288150 8.794197 -1.372250
								CHANNELS 3 Xrotation Yrotation Zrotation
								JOINT LeftShoulder_split
								{
									OFFSET 3.288150 8.794197 -1.372250
									CHANNELS 3 Xrotation Yrotation Zrotation
									JOINT LeftArm
									{
										OFFSET 11.953299 -2.279007 -0.146200
										CHANNELS 3 Xrotation Yrotation Zrotation
										JOINT LeftForeArm
										{
											OFFSET 18.448900 0.000000 0.000000
											CHANNELS 3 Xrotation Yrotation Zrotation
											JOINT LeftHand
											{
												OFFSET 29.527798 0.000000 0.000000
												CHANNELS 3 Xrotation Yrotation Zrotation
												End Site
												{
													OFFSET 0 0 0
												}
											}
										}
									}
								}
							}
						}
						JOINT RightShoulder_virtual
						{
							OFFSET 0.000000 0.000000 0.000000
							CHANNELS 3 Xrotation Yrotation Zrotation
							JOINT RightShoulder
							{
								OFFSET -3.249400 8.794197 -1.372250
								CHANNELS 3 Xrotation Yrotation Zrotation
								JOINT RightShoulder_split
								{
									OFFSET -3.249400 8.794197 -1.372250
									CHANNELS 3 Xrotation Yrotation Zrotation
									JOINT RightArm
									{
										OFFSET -11.953299 -2.279007 -0.146200
										CHANNELS 3 Xrotation Yrotation Zrotation
										JOINT RightForeArm
										{
											OFFSET -18.448900 0.000000 0.000000
											CHANNELS 3 Xrotation Yrotation Zrotation
											JOINT RightHand
											{
												OFFSET -29.527802 0.000000 0.000000
												CHANNELS 3 Xrotation Yrotation Zrotation
												End Site
												{
													OFFSET 0 0 0
												}
											}
										}
									}
								}
							}
						}
					}
				}
			}
		}
	}
}
MOTION
Frames: 8
Frame Time: 0.03333333
1.168469 100.421524 -2.993153 0.000000 0.000000 0.000000 -3.468274 4.225267 -2.295161 -12.838845 7.875411 11.959423 20.038464 -4.443080 1.155178 -2.979056 1.594059 -5.506183 0.268448 0.418097 -1.447261 0.000000 0.000000 0.000000 -3.323658 5.358630 -2.497117 -16.172732 -4.505866 -3.284458 14.155285 1.809683 -1.581605 3.590889 1.250390 -1.184234 1.168097 -0.300771 0.868754 0.000000 0.000000 0.000000 -3.938211 6.537065 -2.405226 9.678716 -0.828602 1.480067 1.867469 0.099005 -0.171040 0.176510 -1.162339 0.853312 0.000000 0.000000 0.000000 -4.115560 -0.111703 0.417434 0.082569 -0.595397 0.369839 4.897651 -1.681283 -1.806272 0.000000 0.000000 0.000000 -4.116824 -0.309720 0.420849 0.387202 -3.146035 -6.213827 -2.517730 -1.324832 0.347946 6.757424 -5.344632 -73.662190 5.982912 -8.436581 2.640745 0.000000 0.000000 0.000000 -4.645200 -0.506651 0.471067 0.978858 7.452346 5.852683 -4.566988 -1.375618 0.233289 5.113475 12.941099 73.842036 17.816748 18.694294 -2.929649 0.000000 0.000000 0.000000 
1.155767 100.499718 -2.851839 0.000000 0.000000 0.000000 -3.332357 4.069714 -2.357070 -12.777016 7.852983 12.088908 19.678846 -4.265159 1.064283 -3.285697 1.465789 -5.307575 0.525062 0.400782 -1.367849 0.000000 0.000000 0.000000 -3.261591 5.073297 -2.527510 -16.133499 -4.380150 -3.175787 14.341907 1.881990 -1.612753 3.523674 1.360577 -1.353019 1.498763 -0.331873 0.969013 0.000000 0.000000 0.000000 -3.621197 6.455736 -2.405767 9.787962 -0.763594 1.520696 1.884326 0.060709 -0.194591 0.451151 -1.531182 0.831137 0.000000 0.000000 0.000000 -4.114893 -0.120478 0.394982 0.093854 -0.516158 0.323742 5.083822 -1.822604 -1.682697 0.000000 0.000000 0.000000 -4.109876 -0.341714 0.400292 0.444435 -3.385117 -6.313529 -2.360485 -1.313750 0.528289 6.473600 -5.252492 -73.816860 5.958649 -8.609052 2.585103 0.000000 0.000000 0.000000 -4.638096 -0.515650 0.487549 1.027287 7.445497 5.999011 -4.498210 -1.364366 0.104103 5.295740 12.798751 73.792039 17.794984 18.863801 -2.944534 0.000000 0.000000 0.000000 
1.111453 100.513657 -2.699495 0.000000 0.000000 0.000000 -3.221163 3.775868 -2.432495 -12.720289 7.912732 12.297269 19.308231 -3.962204 1.096323 -3.682674 1.259344 -5.192591 0.749293 0.353697 -1.181671 0.000000 0.000000 0.000000 -3.163707 4.755859 -2.597499 -16.380470 -4.239031 -3.052998 14.700159 2.021331 -1.619494 3.505303 1.526396 -1.562162 1.715946 -0.332867 0.943302 0.000000 0.000000 0.000000 -3.340943 6.165896 -2.400971 10.110728 -0.691735 1.596899 1.812747 0.015113 -0.207890 0.577033 -1.756998 0.709327 0.000000 0.000000 0.000000 -4.139297 -0.147580 0.385377 0.152698 -0.365867 0.294783 5.169082 -1.905099 -1.626225 0.000000 0.000000 0.000000 -4.143063 -0.392674 0.399129 0.500776 -3.721165 -6.460322 -2.172436 -1.204501 0.759906 6.232516 -5.124536 -73.845867 6.041055 -8.705128 2.446632 0.000000 0.000000 0.000000 -4.681473 -0.550468 0.504178 1.062492 7.338846 6.311726 -4.457371 -1.274623 -0.098732 5.700974 13.045999 73.393299 17.681292 19.125158 -2.905066 0.000000 0.000000 0.000000 
1.036228 100.449783 -2.534698 0.000000 0.000000 0.000000 -3.128799 3.434100 -2.484175 -12.590176 8.010991 12.518300 19.047591 -3.618084 1.211063 -4.054665 0.967492 -5.256782 0.791763 0.283175 -0.889348 0.000000 0.000000 0.000000 -3.048072 4.402455 -2.654893 -16.914308 -4.156324 -2.961567 15.199920 2.216164 -1.588219 3.605586 1.725993 -1.757680 1.701442 -0.309401 0.804642 0.000000 0.000000 0.000000 -3.127571 5.658746 -2.361777 10.557580 -0.631907 1.654860 1.646282 -0.035583 -0.191579 0.509132 -1.799932 0.579283 0.000000 0.000000 0.000000 -4.171019 -0.187644 0.401470 0.265043 -0.164174 0.276512 5.126028 -1.941740 -1.621710 0.000000 0.000000 0.000000 -4.208149 -0.456008 0.430867 0.558747 -4.059173 -6.628910 -2.158667 -1.020393 0.891496 6.077597 -4.983273 -73.719932 6.218701 -8.698132 2.244450 0.000000 0.000000 0.000000 -4.776073 -0.605677 0.534559 1.090701 7.133957 6.732529 -4.457722 -1.179100 -0.375745 6.254610 13.644523 72.709898 17.476864 19.460971 -2.818735 0.000000 0.000000 0.000000 
0.923085 100.358345 -2.327929 0.000000 0.000000 0.000000 -3.030798 3.039683 -2.478393 -12.241611 8.120939 12.683971 18.885044 -3.214304 1.340466 -4.367915 0.634027 -5.412530 0.635921 0.208037 -0.571735 0.000000 0.000000 0.000000 -2.916497 3.964749 -2.659377 -17.717608 -4.182765 -2.954626 15.776928 2.461114 -1.522110 3.912791 1.941714 -1.872299 1.455302 -0.269341 0.600656 0.000000 0.000000 0.000000 -2.963322 4.940949 -2.271652 11.001437 -0.602496 1.653919 1.409442 -0.090610 -0.131556 0.400473 -1.701278 0.518778 0.000000 0.000000 0.000000 -4.194926 -0.238332 0.457934 0.412805 0.076908 0.281347 4.950405 -1.941965 -1.657836 0.000000 0.000000 0.000000 -4.291273 -0.524140 0.506555 0.614279 -4.333857 -6.824335 -2.326215 -0.811482 0.867817 5.994203 -4.831412 -73.426036 6.461828 -8.591697 1.998807 0.000000 0.000000 0.000000 -4.896218 -0.675242 0.599222 1.131725 6.828447 7.178165 -4.438249 -1.144068 -0.697037 6.883204 14.517709 71.826584 17.200254 19.816081 -2.700941 0.000000 0.000000 0.000000 
0.764360 100.278679 -2.107840 0.000000 0.000000 0.000000 -2.912227 2.549452 -2.397009 -11.675665 8.175403 12.764094 18.637460 -2.712554 1.426879 -4.635308 0.360857 -5.588211 0.518757 0.134257 -0.356736 0.000000 0.000000 0.000000 -2.753095 3.399870 -2.589024 -18.714763 -4.308647 -3.019941 16.378249 2.756238 -1.433377 4.360192 2.155197 -1.918878 1.168348 -0.214026 0.399717 0.000000 0.000000 0.000000 -2.808990 4.042909 -2.171317 11.310491 -0.600687 1.587958 1.138409 -0.154988 -0.019376 0.294969 -1.483102 0.508672 0.000000 0.000000 0.000000 -4.199695 -0.297502 0.560608 0.550183 0.351422 0.326007 4.627007 -1.926621 -1.708609 0.000000 0.000000 0.000000 -4.382804 -0.594745 0.630566 0.657332 -4.506026 -7.035828 -2.564576 -0.592747 0.719331 5.956098 -4.646315 -72.981637 6.738302 -8.358656 1.720722 0.000000 0.000000 0.000000 -5.007526 -0.750070 0.707312 1.202639 6.451287 7.575939 -4.421913 -1.166812 -0.986997 7.516506 15.532525 70.854101 16.886601 20.115093 -2.573122 0.000000 0.000000 0.000000 
0.581553 100.208389 -1.929285 0.000000 0.000000 0.000000 -2.764940 1.942549 -2.271465 -10.861476 8.106953 12.741786 18.065784 -2.005853 1.444701 -4.918726 0.236851 -5.794233 0.596064 0.066412 -0.314976 0.000000 0.000000 0.000000 -2.530523 2.671916 -2.466129 -19.797594 -4.445843 -3.092332 16.995963 3.079364 -1.357496 4.750847 2.337877 -2.025537 1.109823 -0.138090 0.274057 0.000000 0.000000 0.000000 -2.619784 2.998914 -2.094668 11.428161 -0.628568 1.463258 0.888138 -0.231020 0.127848 0.314899 -1.215990 0.556218 0.000000 0.000000 0.000000 -4.176650 -0.364039 0.699875 0.643821 0.654205 0.421567 4.224670 -1.875257 -1.758428 0.000000 0.000000 0.000000 -4.467853 -0.673616 0.786133 0.676730 -4.584841 -7.259890 -2.776975 -0.423368 0.534473 5.974239 -4.363796 -72.443295 7.006812 -8.013653 1.415379 0.000000 0.000000 0.000000 -5.098632 -0.829104 0.860286 1.307091 6.030304 7.931723 -4.360800 -1.197406 -1.202824 8.089208 16.581191 69.893681 16.571162 20.285553 -2.458390 0.000000 0.000000 0.000000 
0.365708 100.165573 -1.717215 0.000000 0.000000 0.000000 -2.565107 1.196850 -2.143942 -9.811537 7.845541 12.659441 17.117103 -1.088954 1.393337 -5.130040 0.280303 -6.166827 0.762311 0.013530 -0.383686 0.000000 0.000000 0.000000 -2.239031 1.819710 -2.335816 -20.834700 -4.491964 -3.078537 17.566442 3.400903 -1.321374 4.936185 2.446765 -2.256133 1.288506 -0.044269 0.233142 0.000000 0.000000 0.000000 -2.394177 1.822776 -2.078999 11.360911 -0.676857 1.322256 0.694998 -0.327835 0.285484 0.415634 -1.016353 0.582806 0.000000 0.000000 0.000000 -4.143655 -0.441723 0.845599 0.683134 0.984610 0.587745 3.827056 -1.716409 -1.800804 0.000000 0.000000 0.000000 -4.524412 -0.764751 0.950864 0.673458 -4.589849 -7.452833 -2.899899 -0.372221 0.412469 6.023470 -3.985052 -71.896593 7.234740 -7.629673 1.077197 0.000000 0.000000 0.000000 -5.157592 -0.916306 1.037485 1.424370 5.596527 8.262156 -4.293369 -1.156462 -1.309478 8.565693 17.553036 69.027743 16.277794 20.310572 -2.371872 0.000000 0.000000 0.000000 
